<svg  width="150" height="22" viewBox="0 0 216.729 32.051" xmlns="http://www.w3.org/2000/svg"><path d="m116.211 1.953.732-.146a4.283 4.283 0 0 1 .709.745 5.168 5.168 0 0 1 .244.353q.415.659.561 1.392a3.165 3.165 0 0 1 .062.539q.001.038.001.075a2.722 2.722 0 0 1 -.112.777 1.601 1.601 0 0 1 -.531.787 2.345 2.345 0 0 1 -.397.263 2.178 2.178 0 0 1 .018.097q.021.136.013.225a.4.4 0 0 1 -.006.044q-.025.123-.073.22a.47.47 0 0 0 -.04.11.399.399 0 0 0 -.009.086q0 .094.137.28a1.958 1.958 0 0 0 .009.013 4.122 4.122 0 0 0 -1.151 1.355 5.364 5.364 0 0 0 -.314.695 10.631 10.631 0 0 0 -.314.986q-.131.498-.187.947a5.429 5.429 0 0 0 -.036.411 14.589 14.589 0 0 1 .948-.865 16.632 16.632 0 0 1 .346-.282 34.337 34.337 0 0 1 1.465-1.099 137.016 137.016 0 0 1 1.108-.778 122.127 122.127 0 0 1 .357-.247 19.109 19.109 0 0 0 .837-.611 15.949 15.949 0 0 0 .457-.366q1.504-1.368 2.902-2.246a14.893 14.893 0 0 1 .199-.122 68.249 68.249 0 0 0 1.531-.958 84.236 84.236 0 0 0 1.618-1.069 2.203 2.203 0 0 1 .159-.034q.2-.034.346-.014a.586.586 0 0 1 .105.024 7.856 7.856 0 0 1 .284.101 9.493 9.493 0 0 1 .18.07.76.76 0 0 0 -.008-.116q-.022-.143-.105-.199a.2.2 0 0 0 -.058-.027q-.164-.047-.125-.364a1.28 1.28 0 0 1 .003-.026 8.176 8.176 0 0 0 .604-.185q.364-.128.666-.279a12.394 12.394 0 0 1 .709-.327 14.933 14.933 0 0 1 .463-.186q.439.439.83.903a1.573 1.573 0 0 0 .799.504 2.127 2.127 0 0 0 .275.058 2.867 2.867 0 0 0 .197.365q.175.273.389.44a18.693 18.693 0 0 0 .683.513q.342.244.611.586.268.342.317 1.074-.195.342-.415.733a5.161 5.161 0 0 0 -.201.398q-.096.213-.187.457a8.746 8.746 0 0 0 -.027.072 19.344 19.344 0 0 1 -1.572 1.277 17.174 17.174 0 0 1 -.405.286q-1.001.684-2.027 1.318-1.025.635-2.099 1.27a19.043 19.043 0 0 0 -1.362.889 23.274 23.274 0 0 0 -.836.625 2.661 2.661 0 0 1 -.499.524 3.057 3.057 0 0 1 -.111.086q-.366.268-.757.537a8.681 8.681 0 0 0 -.732.562q-.342.292-.537.683a.923.923 0 0 1 -.289.049.873.873 0 0 1 -.004 0 .921.921 0 0 0 -.292.048.958.958 0 0 0 -.001.001q-.147.342-.464.537a.907.907 0 0 0 -.415.537 7.078 7.078 0 0 0 .725 1.227 5.266 5.266 0 0 0 1.179 1.166 7.78 7.78 0 0 0 2.637 1.196q1.465.366 3.174.39a242.275 242.275 0 0 0 2.645.023 273.737 273.737 0 0 0 .919.002q.195-.049.171-.22-.023-.159.186-.128a.666.666 0 0 1 .034.006 5.357 5.357 0 0 1 .833.354q.586.313.973.745a10.405 10.405 0 0 0 .792.789 13.199 13.199 0 0 0 .722.602 5.956 5.956 0 0 1 -.263 1.501 4.59 4.59 0 0 1 -.86 1.576 6.637 6.637 0 0 1 -1.64 1.391 8.58 8.58 0 0 1 -1.094.562q-1.563.065-2.876 0a21.078 21.078 0 0 1 -1.25-.098q-1.783-.195-3.492-.928-.082-.041-.165-.187a1.262 1.262 0 0 1 -.03-.057 1.801 1.801 0 0 0 -.061-.112q-.033-.056-.066-.101a.717.717 0 0 0 -.068-.08q-.251-.125-.592-.125a1.977 1.977 0 0 0 -.116.003 2.811 2.811 0 0 1 -.122.005q-.324.005-.566-.072a1.252 1.252 0 0 1 -.02-.006 4.524 4.524 0 0 1 -.223-.121q-.252-.144-.616-.382a28.271 28.271 0 0 1 -.382-.254 82.835 82.835 0 0 1 -.793-.543 63.605 63.605 0 0 1 -.721-.507 38.241 38.241 0 0 1 -1.263-1.025 34.416 34.416 0 0 1 -.397-.342 9.69 9.69 0 0 1 -1.255-1.319 8.929 8.929 0 0 1 -.112-.146.533.533 0 0 0 -.367-.217.654.654 0 0 0 -.024-.003 1.351 1.351 0 0 1 -.272-.054 1.138 1.138 0 0 1 -.167-.068q-1.416.879-2.393 2.198a49.296 49.296 0 0 0 -1.855 2.685 30.797 30.797 0 0 1 -1.856 2.588 6.196 6.196 0 0 1 -2.49 1.856 2.251 2.251 0 0 1 -.415-.037 1.741 1.741 0 0 1 -.366-.11 3.068 3.068 0 0 1 -.635-.366 12.941 12.941 0 0 0 -.586-.415q-.293-.196-.635-.293a2.719 2.719 0 0 0 -.094-.727 2.407 2.407 0 0 0 -.125-.347 26.025 26.025 0 0 0 -.33-.705 22.856 22.856 0 0 0 -.11-.223 4.321 4.321 0 0 1 -.208-.487 3.492 3.492 0 0 1 -.109-.368.897.897 0 0 1 -.025-.206q0-.306.22-.599-.293-.293-.879-.635a1.431 1.431 0 0 0 .125-.141q.146-.19.146-.358a.38.38 0 0 0 -.002-.038 1.766 1.766 0 0 0 -.099-.427 1.995 1.995 0 0 0 -.023-.061 3.859 3.859 0 0 1 -.113-.325 4.751 4.751 0 0 1 -.058-.213q-.073-.293.122-.585a1.527 1.527 0 0 0 .197-.014q.175-.023.389-.084a5.865 5.865 0 0 1 -.092-.126q-.193-.273-.177-.336a.031.031 0 0 1 0-.002.07.07 0 0 0 .004-.022q0-.067-.109-.18a1.152 1.152 0 0 0 -.017-.018.784.784 0 0 1 -.017-.058q-.06-.242.115-.308a4.066 4.066 0 0 0 .391-.171 21.938 21.938 0 0 1 .445-2.993 18.598 18.598 0 0 1 .385-1.45 47.132 47.132 0 0 1 1.416-3.955 211.536 211.536 0 0 0 1.538-3.858 27.206 27.206 0 0 0 .984-3.094 31.361 31.361 0 0 0 .261-1.105q.537-.537.854-1.269a29.532 29.532 0 0 1 .684-1.465q.366-.733.83-1.441a3.305 3.305 0 0 1 .972-.958 4.06 4.06 0 0 1 .322-.189q.684.049 1.221.366a1.94 1.94 0 0 0 .653.236q.307.055.665.033a7.26 7.26 0 0 1 .269.488 2.562 2.562 0 0 0 .181.305 3.151 3.151 0 0 0 .136.183zm-38.02.965a4.172 4.172 0 0 0 -.017-.135q-.928-.39-1.685-.952-.757-.561-1.245-1.392a1.417 1.417 0 0 1 .004.041q.032.391-.224.228a.42.42 0 0 0 -.004-.003q-.266-.165-.459.272-.391 0-.831-.44a75.799 75.799 0 0 1 -.568.106q-1.709.312-3.094.48a131.692 131.692 0 0 0 -.798.099 117.724 117.724 0 0 0 -2.302.316q-1.489.22-3.028.562a26.961 26.961 0 0 0 -.44.102q-.674.161-1.421.375a47.838 47.838 0 0 0 -1.63.499 86.857 86.857 0 0 1 -1.05.232 74.665 74.665 0 0 1 -1.001.208q-.976.195-1.806.488a7.115 7.115 0 0 0 -1.538.757q-.708.464-1.197 1.196a11.086 11.086 0 0 1 .045.155 10.011 10.011 0 0 1 .297 1.481q.098.805.244 1.562a7.143 7.143 0 0 0 .04.189 7.777 7.777 0 0 0 .424 1.325 3.65 3.65 0 0 0 .356.65 4.421 4.421 0 0 0 .645.742 21.528 21.528 0 0 1 -.304.779 16.893 16.893 0 0 1 -.404.905 127.814 127.814 0 0 1 -.732 1.489q-.366.733-.708 1.514a17.882 17.882 0 0 0 -.168.397 20.247 20.247 0 0 0 -.467 1.263q-.342-.049-.391.171a.32.32 0 0 1 -.165.225.462.462 0 0 1 -.128.044q.096.448-.07.854a1.72 1.72 0 0 1 -.247.415 3.063 3.063 0 0 0 -.61 1.319 4.171 4.171 0 0 0 -.053.298q-.049.354-.045.743a6.187 6.187 0 0 0 .024.472q.074.83.22 1.685a117.715 117.715 0 0 0 .073.422 103.462 103.462 0 0 0 .22 1.214 18.134 18.134 0 0 1 .009.049q.139.752.186 1.367a1.513 1.513 0 0 1 .289.169.976.976 0 0 1 .371.539 1.526 1.526 0 0 0 .151.371 1.699 1.699 0 0 0 .361.434 4.567 4.567 0 0 0 1.1.808 5.709 5.709 0 0 0 1.293.486q1.465.366 3.076.415 1.611.049 3.174-.146 1.562-.196 2.685-.44.391 0 .684.122a.842.842 0 0 0 .163.049q.172.034.384.008a1.93 1.93 0 0 0 .185-.032 159.34 159.34 0 0 1 1.728-.318 118.555 118.555 0 0 1 1.568-.268 17.553 17.553 0 0 0 1.166-.231 13.971 13.971 0 0 0 1.544-.453 6.535 6.535 0 0 0 2.173-1.294 5.052 5.052 0 0 0 .404-.407q.368-.415.701-.956a10.082 10.082 0 0 0 .58-1.103q-.124.021-.217.002a.307.307 0 0 1 -.198-.124.941.941 0 0 1 -.105-.192 1.224 1.224 0 0 1 -.066-.223 6.83 6.83 0 0 0 -.033-.155 8.083 8.083 0 0 0 -.089-.357 1.027 1.027 0 0 0 -.269-.464 1.404 1.404 0 0 1 -.018.002q-.427.042-.714-.198a4.163 4.163 0 0 1 -.145-.126 4.723 4.723 0 0 1 -.417-.435 29.437 29.437 0 0 1 -.274-.33 35.257 35.257 0 0 1 -.287-.354 1.904 1.904 0 0 0 -.143-.159 1.516 1.516 0 0 0 -.541-.353 10.819 10.819 0 0 1 -.892.267 13.13 13.13 0 0 1 -1.574.294q-1.342.171-2.319.708-1.144-.036-2 .02a11.1 11.1 0 0 0 -.588.053 344.015 344.015 0 0 0 -2.002.245 23.263 23.263 0 0 1 -.622.069 27.498 27.498 0 0 1 -1.453.101 7.733 7.733 0 0 1 -.046.002q-1.087.042-2.713-.197.488-1.318 1.123-2.49a16.897 16.897 0 0 1 1.416-2.197 3.252 3.252 0 0 0 .555.13q.294.043.622.043a5.151 5.151 0 0 0 .166-.002q.757-.025 1.294.219a.967.967 0 0 1 .103-.056q.315-.147.8-.111a3.103 3.103 0 0 1 .196.021 3.146 3.146 0 0 0 .172.019q.584.048.926-.166a1.411 1.411 0 0 0 .059.042q.098.066.175.09a.279.279 0 0 0 .084.015h.366q.552.023 1.055-.025a6.007 6.007 0 0 0 1.069-.195q.952-.268 1.806-.708.855-.439 1.636-1.001.781-.561 1.563-1.099.142-.355.142-.697a1.631 1.631 0 0 0 -.02-.255 3.273 3.273 0 0 0 -.02-.115 2.872 2.872 0 0 0 -.249-.739q-.145.014-.279.005a1.27 1.27 0 0 1 -.575-.176 3.301 3.301 0 0 1 -.272-.182 3.966 3.966 0 0 1 -.436-.38 28.558 28.558 0 0 1 -.684-.708q-.342-.366-.684-.61a.661.661 0 0 1 -.006-.028q-.035-.173.055-.241a.139.139 0 0 0 .04-.046q.046-.087.009-.271-2.002.049-4.077.244-1.353.128-2.55.11a17.534 17.534 0 0 1 -1.234-.061.997.997 0 0 1 -.044-.103q-.099-.268-.078-.654a1.955 1.955 0 0 0 .002-.103 1.952 1.952 0 0 0 -.173-.8 18.09 18.09 0 0 1 .879-.269 1.938 1.938 0 0 0 .147-.047 1.586 1.586 0 0 0 .585-.368q.977.098 1.489-.146a1.248 1.248 0 0 1 .544-.122q.287 0 .604.122a10.977 10.977 0 0 1 1.009-.544 8.936 8.936 0 0 1 2.238-.726q1.636-.293 3.198-.561 1.563-.269 2.905-.879a4.149 4.149 0 0 0 .494-.267q1.042-.655 1.875-2.004a4.626 4.626 0 0 1 -.033-.119q-.065-.254-.065-.393a2.208 2.208 0 0 1 .003-.125 1.786 1.786 0 0 1 .021-.193 12.377 12.377 0 0 0 .025-.152 15.509 15.509 0 0 0 .024-.165q.019-.136-.007-.378zm26.074 0a4.172 4.172 0 0 0 -.017-.135q-.928-.39-1.685-.952-.756-.561-1.245-1.392a1.417 1.417 0 0 1 .004.041q.032.391-.223.228a.42.42 0 0 0 -.004-.003q-.266-.165-.46.272-.391 0-.83-.44a75.799 75.799 0 0 1 -.568.106q-1.71.312-3.094.48a131.692 131.692 0 0 0 -.798.099 117.724 117.724 0 0 0 -2.303.316q-1.489.22-3.027.562a26.961 26.961 0 0 0 -.441.102q-.674.161-1.421.375a47.838 47.838 0 0 0 -1.63.499 86.857 86.857 0 0 1 -1.049.232 74.665 74.665 0 0 1 -1.001.208q-.977.195-1.807.488a7.115 7.115 0 0 0 -1.538.757q-.708.464-1.196 1.196a11.086 11.086 0 0 1 .044.155 10.011 10.011 0 0 1 .297 1.481q.098.805.245 1.562a7.143 7.143 0 0 0 .039.189 7.777 7.777 0 0 0 .424 1.325 3.65 3.65 0 0 0 .356.65 4.421 4.421 0 0 0 .645.742 21.528 21.528 0 0 1 -.303.779 16.893 16.893 0 0 1 -.405.905 127.814 127.814 0 0 1 -.732 1.489q-.366.733-.708 1.514a17.882 17.882 0 0 0 -.168.397 20.247 20.247 0 0 0 -.467 1.263q-.342-.049-.39.171a.32.32 0 0 1 -.166.225.462.462 0 0 1 -.127.044q.096.448-.071.854a1.72 1.72 0 0 1 -.247.415 3.063 3.063 0 0 0 -.61 1.319 4.171 4.171 0 0 0 -.053.298q-.049.354-.044.743a6.187 6.187 0 0 0 .024.472q.073.83.219 1.685a117.715 117.715 0 0 0 .074.422 103.462 103.462 0 0 0 .219 1.214 18.134 18.134 0 0 1 .01.049q.138.752.186 1.367a1.513 1.513 0 0 1 .288.169.976.976 0 0 1 .371.539 1.526 1.526 0 0 0 .152.371 1.699 1.699 0 0 0 .361.434 4.567 4.567 0 0 0 1.099.808 5.709 5.709 0 0 0 1.293.486q1.465.366 3.076.415 1.612.049 3.174-.146 1.563-.196 2.686-.44.39 0 .683.122a.842.842 0 0 0 .163.049q.172.034.384.008a1.93 1.93 0 0 0 .186-.032 159.34 159.34 0 0 1 1.727-.318 118.555 118.555 0 0 1 1.569-.268 17.553 17.553 0 0 0 1.165-.231 13.971 13.971 0 0 0 1.545-.453 6.535 6.535 0 0 0 2.172-1.294 5.052 5.052 0 0 0 .404-.407q.369-.415.701-.956a10.082 10.082 0 0 0 .58-1.103q-.124.021-.217.002a.307.307 0 0 1 -.198-.124.941.941 0 0 1 -.105-.192 1.224 1.224 0 0 1 -.066-.223 6.83 6.83 0 0 0 -.033-.155 8.083 8.083 0 0 0 -.089-.357 1.027 1.027 0 0 0 -.269-.464 1.404 1.404 0 0 1 -.018.002q-.427.042-.714-.198a4.163 4.163 0 0 1 -.145-.126 4.723 4.723 0 0 1 -.417-.435 29.437 29.437 0 0 1 -.274-.33 35.257 35.257 0 0 1 -.287-.354 1.904 1.904 0 0 0 -.143-.159 1.516 1.516 0 0 0 -.541-.353 10.819 10.819 0 0 1 -.892.267 13.13 13.13 0 0 1 -1.573.294q-1.343.171-2.32.708-1.144-.036-2 .02a11.1 11.1 0 0 0 -.588.053 344.015 344.015 0 0 0 -2.002.245 23.263 23.263 0 0 1 -.622.069 27.498 27.498 0 0 1 -1.453.101 7.733 7.733 0 0 1 -.046.002q-1.087.042-2.713-.197.489-1.318 1.123-2.49a16.897 16.897 0 0 1 1.416-2.197 3.252 3.252 0 0 0 .555.13q.294.043.622.043a5.151 5.151 0 0 0 .166-.002q.757-.025 1.294.219a.967.967 0 0 1 .103-.056q.315-.147.8-.111a3.103 3.103 0 0 1 .196.021 3.146 3.146 0 0 0 .172.019q.585.048.926-.166a1.411 1.411 0 0 0 .059.042q.098.066.175.09a.279.279 0 0 0 .084.015h.366q.552.023 1.055-.025a6.007 6.007 0 0 0 1.069-.195q.952-.268 1.807-.708.854-.439 1.635-1.001.782-.561 1.563-1.099.142-.355.142-.697a1.631 1.631 0 0 0 -.02-.255 3.273 3.273 0 0 0 -.02-.115 2.872 2.872 0 0 0 -.249-.739q-.145.014-.279.005a1.27 1.27 0 0 1 -.575-.176 3.301 3.301 0 0 1 -.271-.182 3.966 3.966 0 0 1 -.437-.38 28.558 28.558 0 0 1 -.684-.708q-.341-.366-.683-.61a.661.661 0 0 1 -.007-.028q-.035-.173.056-.241a.139.139 0 0 0 .039-.046q.046-.087.009-.271-2.002.049-4.077.244-1.352.128-2.549.11a17.534 17.534 0 0 1 -1.235-.061.997.997 0 0 1 -.044-.103q-.098-.268-.078-.654a1.955 1.955 0 0 0 .003-.103 1.952 1.952 0 0 0 -.174-.8 18.09 18.09 0 0 1 .879-.269 1.938 1.938 0 0 0 .147-.047 1.586 1.586 0 0 0 .585-.368q.977.098 1.49-.146a1.248 1.248 0 0 1 .543-.122q.287 0 .604.122a10.977 10.977 0 0 1 1.01-.544 8.936 8.936 0 0 1 2.237-.726q1.636-.293 3.198-.561 1.563-.269 2.906-.879a4.149 4.149 0 0 0 .493-.267q1.042-.655 1.875-2.004a4.626 4.626 0 0 1 -.033-.119q-.065-.254-.065-.393a2.208 2.208 0 0 1 .004-.125 1.786 1.786 0 0 1 .021-.193 12.377 12.377 0 0 0 .024-.152 15.509 15.509 0 0 0 .024-.165q.02-.136-.007-.378zm58.35 0a4.172 4.172 0 0 0 -.017-.135q-.928-.39-1.685-.952-.757-.561-1.245-1.392a1.417 1.417 0 0 1 .004.041q.032.391-.224.228a.42.42 0 0 0 -.004-.003q-.266-.165-.46.272-.39 0-.83-.44a75.799 75.799 0 0 1 -.568.106q-1.709.312-3.094.48a131.692 131.692 0 0 0 -.798.099 117.724 117.724 0 0 0 -2.302.316q-1.49.22-3.028.562a26.961 26.961 0 0 0 -.441.102q-.673.161-1.42.375a47.838 47.838 0 0 0 -1.63.499 86.857 86.857 0 0 1 -1.05.232 74.665 74.665 0 0 1 -1.001.208q-.976.195-1.806.488a7.115 7.115 0 0 0 -1.538.757q-.708.464-1.197 1.196a11.086 11.086 0 0 1 .045.155 10.011 10.011 0 0 1 .297 1.481q.098.805.244 1.562a7.143 7.143 0 0 0 .039.189 7.777 7.777 0 0 0 .425 1.325 3.65 3.65 0 0 0 .355.65 4.421 4.421 0 0 0 .646.742 21.528 21.528 0 0 1 -.304.779 16.893 16.893 0 0 1 -.404.905 127.814 127.814 0 0 1 -.732 1.489q-.367.733-.708 1.514a17.882 17.882 0 0 0 -.168.397 20.247 20.247 0 0 0 -.467 1.263q-.342-.049-.391.171a.32.32 0 0 1 -.165.225.462.462 0 0 1 -.128.044q.096.448-.07.854a1.72 1.72 0 0 1 -.247.415 3.063 3.063 0 0 0 -.61 1.319 4.171 4.171 0 0 0 -.053.298q-.049.354-.045.743a6.187 6.187 0 0 0 .024.472q.073.83.22 1.685a117.715 117.715 0 0 0 .073.422 103.462 103.462 0 0 0 .22 1.214 18.134 18.134 0 0 1 .009.049q.139.752.186 1.367a1.513 1.513 0 0 1 .289.169.976.976 0 0 1 .37.539 1.526 1.526 0 0 0 .152.371 1.699 1.699 0 0 0 .361.434 4.567 4.567 0 0 0 1.1.808 5.709 5.709 0 0 0 1.293.486q1.465.366 3.076.415 1.611.049 3.174-.146 1.562-.196 2.685-.44.391 0 .684.122a.842.842 0 0 0 .162.049q.173.034.385.008a1.93 1.93 0 0 0 .185-.032 159.34 159.34 0 0 1 1.728-.318 118.555 118.555 0 0 1 1.568-.268 17.553 17.553 0 0 0 1.166-.231 13.971 13.971 0 0 0 1.544-.453 6.535 6.535 0 0 0 2.173-1.294 5.052 5.052 0 0 0 .403-.407q.369-.415.701-.956a10.082 10.082 0 0 0 .581-1.103q-.124.021-.218.002a.307.307 0 0 1 -.197-.124.941.941 0 0 1 -.106-.192 1.224 1.224 0 0 1 -.065-.223 6.83 6.83 0 0 0 -.033-.155 8.083 8.083 0 0 0 -.089-.357 1.027 1.027 0 0 0 -.269-.464 1.404 1.404 0 0 1 -.018.002q-.428.042-.714-.198a4.163 4.163 0 0 1 -.145-.126 4.723 4.723 0 0 1 -.417-.435 29.437 29.437 0 0 1 -.275-.33 35.257 35.257 0 0 1 -.286-.354 1.904 1.904 0 0 0 -.143-.159 1.516 1.516 0 0 0 -.541-.353 10.819 10.819 0 0 1 -.892.267 13.13 13.13 0 0 1 -1.574.294q-1.343.171-2.319.708-1.144-.036-2 .02a11.1 11.1 0 0 0 -.588.053 344.015 344.015 0 0 0 -2.002.245 23.263 23.263 0 0 1 -.622.069 27.498 27.498 0 0 1 -1.453.101 7.733 7.733 0 0 1 -.046.002q-1.087.042-2.713-.197.488-1.318 1.123-2.49a16.897 16.897 0 0 1 1.416-2.197 3.252 3.252 0 0 0 .555.13q.294.043.622.043a5.151 5.151 0 0 0 .166-.002q.757-.025 1.294.219a.967.967 0 0 1 .103-.056q.315-.147.8-.111a3.103 3.103 0 0 1 .195.021 3.146 3.146 0 0 0 .172.019q.585.048.927-.166a1.411 1.411 0 0 0 .059.042q.098.066.175.09a.279.279 0 0 0 .083.015h.367q.552.023 1.055-.025a6.007 6.007 0 0 0 1.069-.195q.952-.268 1.806-.708.855-.439 1.636-1.001.781-.561 1.562-1.099.143-.355.143-.697a1.631 1.631 0 0 0 -.02-.255 3.273 3.273 0 0 0 -.021-.115 2.872 2.872 0 0 0 -.248-.739q-.145.014-.279.005a1.27 1.27 0 0 1 -.575-.176 3.301 3.301 0 0 1 -.272-.182 3.966 3.966 0 0 1 -.436-.38 28.558 28.558 0 0 1 -.684-.708q-.342-.366-.684-.61a.661.661 0 0 1 -.006-.028q-.035-.173.055-.241a.139.139 0 0 0 .04-.046q.046-.087.009-.271-2.002.049-4.077.244-1.353.128-2.55.11a17.534 17.534 0 0 1 -1.234-.061.997.997 0 0 1 -.045-.103q-.098-.268-.077-.654a1.955 1.955 0 0 0 .002-.103 1.952 1.952 0 0 0 -.173-.8 18.09 18.09 0 0 1 .879-.269 1.938 1.938 0 0 0 .146-.047 1.586 1.586 0 0 0 .586-.368q.977.098 1.489-.146a1.248 1.248 0 0 1 .543-.122q.287 0 .605.122a10.977 10.977 0 0 1 1.009-.544 8.936 8.936 0 0 1 2.238-.726q1.636-.293 3.198-.561 1.563-.269 2.905-.879a4.149 4.149 0 0 0 .494-.267q1.042-.655 1.874-2.004a4.626 4.626 0 0 1 -.032-.119q-.065-.254-.065-.393a2.208 2.208 0 0 1 .003-.125 1.786 1.786 0 0 1 .021-.193 12.377 12.377 0 0 0 .025-.152 15.509 15.509 0 0 0 .024-.165q.019-.136-.007-.378zm-129.9 18.469a.871.871 0 0 0 -.588.422 1.107 1.107 0 0 0 -.047.09 13.483 13.483 0 0 0 -.366.855 14.997 14.997 0 0 1 -.171.421 11.901 11.901 0 0 1 -.171.385.813.813 0 0 1 -.11.177.501.501 0 0 1 -.403.189 1.468 1.468 0 0 1 -.137.47 1.347 1.347 0 0 1 -.131.213 8.035 8.035 0 0 0 -.415.611q-.196.317-.293.683-.09.338.069.78a2.324 2.324 0 0 0 .028.075 1.234 1.234 0 0 0 -.448.66 1.655 1.655 0 0 0 -.04.17 16.62 16.62 0 0 1 -.16.778 14.706 14.706 0 0 1 -.06.247 2.168 2.168 0 0 1 -.191.503 1.838 1.838 0 0 1 -.224.327.747.747 0 0 1 -.295.205q-.278.111-.719.092a3.281 3.281 0 0 1 -.06-.004.89.89 0 0 0 -.034.049q-.099.153-.015.195a.144.144 0 0 1 .051.047q.061.085.096.295-.537-.097-.806.074-.265.168-.648.218a2.269 2.269 0 0 1 -.011.001 3.222 3.222 0 0 1 -1.538-1.025q-.61-.733-1.074-1.636a20.42 20.42 0 0 1 -.83-1.831 25.336 25.336 0 0 0 -.316-.765q-.15-.346-.296-.649a14.239 14.239 0 0 0 -.096-.197q.088-.323.088-.636a2.208 2.208 0 0 0 -.04-.414 2.608 2.608 0 0 0 -.113-.416q-.087-.235-.216-.42a1.625 1.625 0 0 0 -.012-.019 659.584 659.584 0 0 1 2.502-5.249 806.597 806.597 0 0 1 2.722-5.59 391.017 391.017 0 0 0 5.371-11.377q1.123.439 2.222 1.001a11.478 11.478 0 0 1 1.881 1.197 10.618 10.618 0 0 1 .121.097 7.552 7.552 0 0 1 1.538 1.684 5.375 5.375 0 0 1 .83 2.124 1.061 1.061 0 0 1 -.03.08q-.086.202-.19.14-.103-.062-.189.033a.349.349 0 0 0 -.03.04q.171.214.211.316a.215.215 0 0 1 .008.026.401.401 0 0 1 .013.098.401.401 0 0 1 -.013.097q-.024.098-.024.269a.555.555 0 0 0 .014.115q.024.113.091.261a2.474 2.474 0 0 0 .041.088.623.623 0 0 0 -.046-.01q-.077-.013-.132 0a.156.156 0 0 0 -.09.058.117.117 0 0 1 -.069.044q-.086.021-.248-.044.178.492.132.82a.847.847 0 0 1 -.01.059 2.451 2.451 0 0 1 -.113.38 2.01 2.01 0 0 1 -.107.231 3.088 3.088 0 0 0 -.206.468 3.518 3.518 0 0 0 -.038.118.882.882 0 0 0 -.035.178q-.024.267.084.627-.098 0-.164.033a.217.217 0 0 0 -.056.041 1.082 1.082 0 0 0 -.074.081.847.847 0 0 0 -.048.065.872.872 0 0 1 -.063.082 1.114 1.114 0 0 1 -.059.065.148.148 0 0 1 -.091.042q-.055.007-.129-.018.146 1.074.098 2.148-.049 1.075-.074 2.173a33.46 33.46 0 0 0 -.008.744q0 .707.029 1.452a41.2 41.2 0 0 0 .004.099 13.06 13.06 0 0 0 .236 1.973 14.909 14.909 0 0 0 .106.493 8.369 8.369 0 0 0 2.389-2.053 8.006 8.006 0 0 0 .418-.584 14.948 14.948 0 0 0 1.402-2.756 17.345 17.345 0 0 0 .307-.857 25.022 25.022 0 0 0 .81-3.168 29.002 29.002 0 0 0 .191-1.129 339.295 339.295 0 0 1 .733-4.687 2.956 2.956 0 0 0 .585-.843 3.505 3.505 0 0 0 .098-.232q.244-.634.44-1.342l.39-1.416a7.56 7.56 0 0 1 .299-.877 6.379 6.379 0 0 1 .19-.417 3.13 3.13 0 0 1 .658.157 2.438 2.438 0 0 1 .587.307 9.017 9.017 0 0 1 .952.781q.439.415.928.781a2.279 2.279 0 0 0 .665.34 3.11 3.11 0 0 0 .555.124 35.979 35.979 0 0 1 .808 1.193 31.035 31.035 0 0 1 .266.418q.489.781.635 1.66a2.956 2.956 0 0 0 -.316.699 3.44 3.44 0 0 0 -.05.18q-.122.489-.269.977a4.114 4.114 0 0 1 -.36.851 3.831 3.831 0 0 1 -.03.052 2.115 2.115 0 0 1 -.526.594 2.532 2.532 0 0 1 -.158.114 29.415 29.415 0 0 1 -.165 1.215 22.618 22.618 0 0 1 -.201 1.105 444.795 444.795 0 0 1 -.439 2.075 27.383 27.383 0 0 0 -.357 2.055 29.897 29.897 0 0 0 -.01.069q-.146 1.098-.097 2.417a1552.484 1552.484 0 0 0 -.403 1.159 1863.751 1863.751 0 0 0 -.427 1.233 29.745 29.745 0 0 0 -.347 1.064q-.15.491-.264.938a17.611 17.611 0 0 0 -.073.293 4.561 4.561 0 0 0 -1.221 1.514 45.747 45.747 0 0 1 -.927 1.758q-.189.188-.241.104a.083.083 0 0 1 -.003-.007.144.144 0 0 0 -.047-.051q-.085-.06-.295-.095.049.195 0 .293a.652.652 0 0 1 -.12.168.617.617 0 0 1 -.002.003.292.292 0 0 0 -.056.079q-.018.037-.03.083a.64.64 0 0 0 -.012.057.367.367 0 0 0 -.005.049q-.004.136.078.342a3.868 3.868 0 0 0 -1.22.83 9.332 9.332 0 0 1 -1.148.977 3.241 3.241 0 0 1 -.948.464 4.122 4.122 0 0 1 -.517.122 2.39 2.39 0 0 1 -.311.031q-.577.023-1.345-.192a8.463 8.463 0 0 1 -.565-.181 18.793 18.793 0 0 1 -3.541-3.369 14.899 14.899 0 0 1 -1.776-2.815 18.551 18.551 0 0 1 -.738-1.726zm-17.676-3.907-.537-.146a9.566 9.566 0 0 0 -1.255-.605 11.768 11.768 0 0 0 -.845-.298q-1.007-.315-1.761-.684a8.338 8.338 0 0 1 -.241-.122q-.358.195-.683.195a1.048 1.048 0 0 1 -.318-.049q-.311-.098-.744-.196a17.706 17.706 0 0 0 -.452-.096 33.024 33.024 0 0 1 -2.812-.284 29.963 29.963 0 0 1 -.386-.058q-1.538-.244-2.954-.879-.098-.244-.244-.44-.147-.195-.537-.097a30.647 30.647 0 0 0 -.586-.757 5.702 5.702 0 0 1 -.476-.697 6.364 6.364 0 0 1 -.062-.109 29.584 29.584 0 0 0 .067-.415q.049-.326.08-.586a.884.884 0 0 0 .006-.103q0-.361-.299-.702a35.164 35.164 0 0 0 .092-.303q.11-.369.179-.638a10.09 10.09 0 0 0 .022-.085 1.56 1.56 0 0 0 .037-.21q.033-.307-.024-.727a5.059 5.059 0 0 0 -.013-.088q.342-1.026 1.099-1.758.756-.732 1.66-1.245.903-.513 1.88-.855.976-.341 1.855-.586a58.308 58.308 0 0 1 2.946-1.155 67.777 67.777 0 0 1 1.229-.431 58.548 58.548 0 0 1 4.541-1.343 27.132 27.132 0 0 1 4.761-.757 12.66 12.66 0 0 1 .884-.031q2.039 0 4.243.641a3.456 3.456 0 0 0 .439.928 28.551 28.551 0 0 0 .61.879 11.685 11.685 0 0 1 .369.54 9.777 9.777 0 0 1 .193.314 2.237 2.237 0 0 1 .24.569 1.999 1.999 0 0 1 .053.286q.488.439.781.952.289.506.103 1.322a3.573 3.573 0 0 1 -.005.021 16.734 16.734 0 0 1 -.66.502 14.249 14.249 0 0 1 -.292.206q-.464.317-1.001.561a11.542 11.542 0 0 0 -2.738-.329 11.745 11.745 0 0 0 -.924.036 331.523 331.523 0 0 1 -1.654.127q-.777.057-1.47.104a194.957 194.957 0 0 1 -.197.013 1.475 1.475 0 0 0 -.565-.361 1.478 1.478 0 0 0 -.485-.078 4.219 4.219 0 0 0 -.862.092 5.094 5.094 0 0 0 -.407.103l-1.318.391a3.193 3.193 0 0 1 -.53.111q-.161.019-.317.019a2.422 2.422 0 0 1 -.399-.032 2.419 2.419 0 0 1 -.795.416 3.091 3.091 0 0 1 -.401.096 25.953 25.953 0 0 1 -.738.116 32.558 32.558 0 0 1 -.8.104q-.049.244.098.317.145.073.05.314a.849.849 0 0 1 -.001.004 1.586 1.586 0 0 0 .657.454 1.924 1.924 0 0 0 .099.034 35.775 35.775 0 0 0 .724.22 41.008 41.008 0 0 0 .253.073q.513.147.903.366a1.096 1.096 0 0 1 .468.521 1.502 1.502 0 0 1 .069.187 2.638 2.638 0 0 1 .659.079 2.107 2.107 0 0 1 .611.263q.537.342.879.83a3.698 3.698 0 0 1 .513 1.05 4.52 4.52 0 0 1 .11.436q.06.304.06.565.147.391.342.342a.273.273 0 0 1 .067-.008q.169 0 .373.203a2.367 2.367 0 0 0 .234.601q.187.343.498.693a5.443 5.443 0 0 1 .928 1.44 94.731 94.731 0 0 1 .076 1.017q.032.466.056.883a55.094 55.094 0 0 1 .014.273 4.137 4.137 0 0 1 .006.212q0 .849-.347 1.717a10.69 10.69 0 0 1 -2.027 3.223 16.139 16.139 0 0 1 -2.93 2.514 20.54 20.54 0 0 1 -3.491 1.88 39.081 39.081 0 0 1 -2.728 1.035 34.099 34.099 0 0 1 -.885.284.803.803 0 0 0 -.195-.025.803.803 0 0 0 -.196.025q-.182.045-.109-.208a.98.98 0 0 1 .012-.037 1.994 1.994 0 0 1 -.49.32 1.758 1.758 0 0 1 -.365.12q-.371.078-.789.078a4.667 4.667 0 0 1 -.212-.005q-.537-.024-1.098-.073-.562-.049-1.05.049-.342-.342-.611-.659a1.937 1.937 0 0 1 -.261-.408 2.661 2.661 0 0 1 -.154-.398.353.353 0 0 1 -.085-.01q-.147-.037-.136-.218a.469.469 0 0 1 .002-.016.559.559 0 0 0 .002-.03q.01-.214-.173-.214a9.402 9.402 0 0 0 .063-.108q.227-.389.205-.454-.024-.073-.146-.122a.976.976 0 0 1 -.181-.094.883.883 0 0 1 -.039-.028q-.094-.071-.052-.21a.396.396 0 0 1 .003-.01 1.487 1.487 0 0 0 .148-.524q.018-.18-.001-.379a245.76 245.76 0 0 1 -.098-1.05 3.345 3.345 0 0 1 -.014-.303 2.968 2.968 0 0 1 .087-.722 1.041 1.041 0 0 1 .321-.523q.158-.144.387-.259a10.61 10.61 0 0 0 1.24.075 9.137 9.137 0 0 0 1.91-.197 14.175 14.175 0 0 0 2.766-.885 13.236 13.236 0 0 0 .041-.018q1.319-.586 2.515-1.27a30.201 30.201 0 0 1 2.075-1.084 27.351 27.351 0 0 1 .293-.136 2.263 2.263 0 0 1 .184-.414 1.79 1.79 0 0 1 .231-.319q.269-.293.562-.537.293-.244.537-.537a1.547 1.547 0 0 0 .248-.423 2.031 2.031 0 0 0 .094-.309.929.929 0 0 0 .006-.059q.023-.29-.177-.356a.294.294 0 0 1 -.198-.203q-.018-.058-.021-.13a.731.731 0 0 1 -.001-.034zm188.477 0-.537-.146a9.566 9.566 0 0 0 -1.256-.605 11.768 11.768 0 0 0 -.844-.298q-1.007-.315-1.762-.684a8.338 8.338 0 0 1 -.24-.122q-.358.195-.684.195a1.048 1.048 0 0 1 -.317-.049q-.312-.098-.745-.196a17.706 17.706 0 0 0 -.451-.096 33.024 33.024 0 0 1 -2.812-.284 29.963 29.963 0 0 1 -.387-.058q-1.538-.244-2.954-.879-.097-.244-.244-.44-.146-.195-.537-.097a30.647 30.647 0 0 0 -.586-.757 5.702 5.702 0 0 1 -.475-.697 6.364 6.364 0 0 1 -.062-.109 29.584 29.584 0 0 0 .066-.415q.05-.326.081-.586a.884.884 0 0 0 .006-.103q0-.361-.299-.702a35.164 35.164 0 0 0 .091-.303q.11-.369.18-.638a10.09 10.09 0 0 0 .022-.085 1.56 1.56 0 0 0 .036-.21q.033-.307-.024-.727a5.059 5.059 0 0 0 -.012-.088q.341-1.026 1.098-1.758.757-.732 1.66-1.245.904-.513 1.88-.855.977-.341 1.856-.586a58.308 58.308 0 0 1 2.946-1.155 67.777 67.777 0 0 1 1.228-.431 58.548 58.548 0 0 1 4.541-1.343 27.132 27.132 0 0 1 4.761-.757 12.66 12.66 0 0 1 .885-.031q2.039 0 4.242.641a3.456 3.456 0 0 0 .44.928 28.551 28.551 0 0 0 .61.879 11.685 11.685 0 0 1 .368.54 9.777 9.777 0 0 1 .194.314 2.237 2.237 0 0 1 .239.569 1.999 1.999 0 0 1 .053.286q.489.439.782.952.289.506.102 1.322a3.573 3.573 0 0 1 -.005.021 16.734 16.734 0 0 1 -.659.502 14.249 14.249 0 0 1 -.293.206q-.464.317-1.001.561a11.542 11.542 0 0 0 -2.737-.329 11.745 11.745 0 0 0 -.925.036 331.523 331.523 0 0 1 -1.654.127q-.777.057-1.47.104a194.957 194.957 0 0 1 -.196.013 1.475 1.475 0 0 0 -.565-.361 1.478 1.478 0 0 0 -.485-.078 4.219 4.219 0 0 0 -.862.092 5.094 5.094 0 0 0 -.407.103l-1.319.391a3.193 3.193 0 0 1 -.53.111q-.16.019-.316.019a2.422 2.422 0 0 1 -.399-.032 2.419 2.419 0 0 1 -.795.416 3.091 3.091 0 0 1 -.401.096 25.953 25.953 0 0 1 -.739.116 32.558 32.558 0 0 1 -.799.104q-.049.244.097.317.146.073.051.314a.849.849 0 0 1 -.002.004 1.586 1.586 0 0 0 .658.454 1.924 1.924 0 0 0 .099.034 35.775 35.775 0 0 0 .723.22 41.008 41.008 0 0 0 .254.073q.512.147.903.366a1.096 1.096 0 0 1 .467.521 1.502 1.502 0 0 1 .07.187 2.638 2.638 0 0 1 .659.079 2.107 2.107 0 0 1 .611.263q.537.342.878.83a3.698 3.698 0 0 1 .513 1.05 4.52 4.52 0 0 1 .111.436q.06.304.06.565.146.391.342.342a.273.273 0 0 1 .066-.008q.17 0 .373.203a2.367 2.367 0 0 0 .234.601q.187.343.499.693a5.443 5.443 0 0 1 .927 1.44 94.731 94.731 0 0 1 .077 1.017q.032.466.055.883a55.094 55.094 0 0 1 .015.273 4.137 4.137 0 0 1 .005.212q0 .849-.347 1.717a10.69 10.69 0 0 1 -2.026 3.223 16.139 16.139 0 0 1 -2.93 2.514 20.54 20.54 0 0 1 -3.491 1.88 39.081 39.081 0 0 1 -2.728 1.035 34.099 34.099 0 0 1 -.885.284.803.803 0 0 0 -.196-.025.803.803 0 0 0 -.195.025q-.183.045-.109-.208a.98.98 0 0 1 .011-.037 1.994 1.994 0 0 1 -.489.32 1.758 1.758 0 0 1 -.365.12q-.371.078-.789.078a4.667 4.667 0 0 1 -.212-.005q-.537-.024-1.099-.073-.561-.049-1.05.049-.341-.342-.61-.659a1.937 1.937 0 0 1 -.262-.408 2.661 2.661 0 0 1 -.153-.398.353.353 0 0 1 -.086-.01q-.147-.037-.135-.218a.469.469 0 0 1 .001-.016.559.559 0 0 0 .002-.03q.01-.214-.173-.214a9.402 9.402 0 0 0 .064-.108q.226-.389.205-.454-.025-.073-.147-.122a.976.976 0 0 1 -.18-.094.883.883 0 0 1 -.039-.028q-.095-.071-.052-.21a.396.396 0 0 1 .003-.01 1.487 1.487 0 0 0 .148-.524q.017-.18-.002-.379a245.76 245.76 0 0 1 -.097-1.05 3.345 3.345 0 0 1 -.014-.303 2.968 2.968 0 0 1 .087-.722 1.041 1.041 0 0 1 .321-.523q.158-.144.387-.259a10.61 10.61 0 0 0 1.24.075 9.137 9.137 0 0 0 1.909-.197 14.175 14.175 0 0 0 2.767-.885 13.236 13.236 0 0 0 .041-.018q1.318-.586 2.515-1.27a30.201 30.201 0 0 1 2.074-1.084 27.351 27.351 0 0 1 .294-.136 2.263 2.263 0 0 1 .183-.414 1.79 1.79 0 0 1 .232-.319q.268-.293.561-.537.293-.244.537-.537a1.547 1.547 0 0 0 .248-.423 2.031 2.031 0 0 0 .094-.309.929.929 0 0 0 .007-.059q.022-.29-.178-.356a.294.294 0 0 1 -.197-.203q-.018-.058-.022-.13a.731.731 0 0 1 0-.034zm-20.899-13.134v.586a4.448 4.448 0 0 1 .952 1.245 12.652 12.652 0 0 1 .576 1.289 14.148 14.148 0 0 1 .084.224l.585 1.612q.293.805.684 1.538a1.784 1.784 0 0 0 -.054.152q-.022.076-.033.144a.741.741 0 0 0 -.011.119.914.914 0 0 0 .022.194 1.242 1.242 0 0 0 .052.172 3.596 3.596 0 0 1 .122.391q.045.181.006.489a2.989 2.989 0 0 1 -.006.048 6.602 6.602 0 0 1 -.301 1.608 4.875 4.875 0 0 1 -1.091 1.859 10.081 10.081 0 0 1 -2.571 1.952 11.629 11.629 0 0 1 -.432.22 23.783 23.783 0 0 1 -3.386 1.329 26.389 26.389 0 0 1 -.374.112 37.675 37.675 0 0 0 -1.904.61 28.955 28.955 0 0 0 -1.709.659.325.325 0 0 0 .008.074q.023.101.119.118a.245.245 0 0 0 .044.004q.171 0 .122.244.897.561 1.508.95a94.933 94.933 0 0 1 .348.222 13.843 13.843 0 0 0 .665.403 10.524 10.524 0 0 0 .629.329 9.335 9.335 0 0 0 .97.398 10.722 10.722 0 0 0 .348.115 14.897 14.897 0 0 0 .389.114q.636.179 1.588.399 1.27.293 1.978.463.708.171 1.294.293.586.122 1.196.196.467.056 1.235.126a107.244 107.244 0 0 0 .499.045 4.069 4.069 0 0 1 .59.755 4.809 4.809 0 0 1 .166.294 4.266 4.266 0 0 1 .317.782 3.654 3.654 0 0 1 .098.439q.098.61.049 1.172a1.989 1.989 0 0 1 -.075.405q-.088.29-.267.498.047.139.202.125a.367.367 0 0 0 .018-.003.824.824 0 0 1 .117-.008q.119 0 .249.033-.293.195-.488.488l-.39.586a2.753 2.753 0 0 1 -.35.428 2.507 2.507 0 0 1 -.09.085q-.213.191-.573.253a1.893 1.893 0 0 1 -.111.015 4.585 4.585 0 0 1 -1.092.268q-1.184.148-2.716-.194a25.337 25.337 0 0 1 -1.554-.404q-1.781-.519-4.104-1.417a79.411 79.411 0 0 1 -.153-.059 77.813 77.813 0 0 1 -.837-.331q-1.027-.414-1.78-.756a25.855 25.855 0 0 1 -.239-.11 20.267 20.267 0 0 1 -.966-.48q-.447-.239-.83-.477a11.901 11.901 0 0 1 -.108-.068 11.738 11.738 0 0 1 -1.191-.864 10.452 10.452 0 0 1 -.274-.235 478.833 478.833 0 0 1 -.532-.473q-.238-.212-.502-.448a937.121 937.121 0 0 1 -.553-.495 50.753 50.753 0 0 1 -.261.917q-.38 1.287-.691 2.037a7.776 7.776 0 0 1 -.519 1.02q-.292.486-.675.989a12.863 12.863 0 0 1 -.051.067 2.602 2.602 0 0 0 -.153-.019q-.513-.049-.726.165-.244.244-.537.44-.395.087-.593.018a.37.37 0 0 1 -.042-.018 1.917 1.917 0 0 1 -.215-.125 1.565 1.565 0 0 1 -.127-.095 1.877 1.877 0 0 0 -.142-.107q-.076-.051-.164-.103a3.365 3.365 0 0 0 -.06-.034.785.785 0 0 0 -.173-.069q-.167-.046-.406-.052a2.948 2.948 0 0 0 -.08-.001 8.203 8.203 0 0 0 -.146-.514 7.018 7.018 0 0 0 -.074-.219.37.37 0 0 0 -.264-.244q-.146-.04-.362-.006a1.596 1.596 0 0 0 -.033.006 2.447 2.447 0 0 0 .043-.21q.035-.219.014-.391a.949.949 0 0 0 -.008-.058 3.969 3.969 0 0 0 -.063-.287 3.1 3.1 0 0 0 -.06-.201 4.424 4.424 0 0 1 -.122-.44q-.041-.187.023-.463a2.131 2.131 0 0 1 .026-.098.332.332 0 0 1 -.241-.106q-.084-.084-.149-.236a6.655 6.655 0 0 0 -.318-.641 7.267 7.267 0 0 0 -.024-.043q.146-.879.293-1.66a12.625 12.625 0 0 1 .236-1.028 10.844 10.844 0 0 1 .13-.437q.22-.683.366-1.367a2.195 2.195 0 0 0 .049-.461q0-.335-.1-.68a2.97 2.97 0 0 0 -.095-.275.413.413 0 0 0 .042.028q.143.082.228-.057a.395.395 0 0 0 .023-.044q.069-.156.114-.386a3.407 3.407 0 0 0 .032-.2 5.536 5.536 0 0 0 .049-.733 4.546 4.546 0 0 0 -.007-.252q-.011-.203-.042-.358a20.232 20.232 0 0 0 .806-2.612 87.486 87.486 0 0 0 .586-2.661 102.481 102.481 0 0 1 .561-2.588 12.969 12.969 0 0 1 .495-1.654 11.209 11.209 0 0 1 .287-.69 1.909 1.909 0 0 1 .342-.03q.217 0 .452.045a3.186 3.186 0 0 1 .402.107 2.711 2.711 0 0 1 .297.117q.302.142.438.324a.584.584 0 0 1 .07.121 10.702 10.702 0 0 0 2.154-2.239 12 12 0 0 0 .093-.13 68.564 68.564 0 0 1 2.002-2.71q1.025-1.318 2.27-2.343a5.252 5.252 0 0 1 1.918-.989 7.094 7.094 0 0 1 1.231-.232 30.418 30.418 0 0 0 1.238.878 37.949 37.949 0 0 0 .935.611 6.37 6.37 0 0 1 1.978 1.978q.39.195.659.415.269.22.659.464zm-6.836 4.101q-.537.782-1.196 1.416a31.631 31.631 0 0 0 -1.27 1.294q-.61.659-1.098 1.465a5.066 5.066 0 0 0 -.506 1.143 6.409 6.409 0 0 0 -.178.737q1.709-.195 3.565-.952 1.855-.757 3.515-1.441a5.285 5.285 0 0 0 -.274-1.153 3.834 3.834 0 0 0 -.776-1.288 5.437 5.437 0 0 0 -.678-.628q-.419-.322-.853-.502a3.105 3.105 0 0 0 -.251-.091z" fill-rule="evenodd" stroke="#000" stroke-linecap="round" stroke-width=".2mm"/></svg>
